<svg 
id="eiHJemNdIGn1" 
xmlns="http://www.w3.org/2000/svg"
 xmlns:xlink="http://www.w3.org/1999/xlink"
 viewBox="0 0 640 640"
 shape-rendering="geometricPrecision"
 text-rendering="geometricPrecision"
 style="background-color:rgba(140,64,64,0)">
 <defs>
  <filter id="eiHJemNdIGn2-filter" x="-400%" width="600%" y="-400%" height="600%"><feGaussianBlur id="eiHJemNdIGn2-filter-blur-0" stdDeviation="0,0" result="result"/>
  </filter>
</defs>
<path id="eiHJemNdIGn2" d="M141.16873,150.356824Q111.684135,176.155845,113.526922,201.954866L91.413475,222.225526C102.220951,234.384179,96.539623,244.981582,105.096772,250.012385C108.210721,251.843096,112.04887,256.869969,120.898071,255.395695L150.382666,259.08127L165.124964,303.308163L152.320478,337.893061L151.037803,367.394589L181.822007,416.136245L181.710049,441.517204L191.072002,484.126278L186.499707,508.870461L172.244906,516.132341L171.95938,522.557674L176.548242,528.773391L180.313661,530.925059L186.230749,529.580267L192.685753,529.311308L187.575541,535.766313L187.946854,542.365662L187.943314,542.42804L187.939774,542.490417L187.937546,542.529785L187.937366,542.530157L196.989089,544.104026L207.909848,542.530157L218.894714,536.538412L251.84931,509.575561L287.897066,514.787549L332.367375,518.951642L326.006139,527.221249L315.828162,535.490855L314.402649,546.545776L314.390729,546.556076L324.733892,549.485574L337.456363,546.304956L345.089846,550.757821L355.267823,551.393944L389.945004,550.24165L419.4296,524.442629C467.329831,533.017526,484.406063,443.504921,449.953261,357.729584C436.698059,324.728802,445.127557,250.816653,457.046584,207.724788L457.04657,207.724792L457.04657,207.724792L457.04657,207.724792L457.04657,207.724792L464.116165,195.931637L476.123325,188.648046L487.850541,189.634762L493.141089,196.426505C504.304189,211.074204,493.484375,224.102779,477.395108,229.345095C465.568387,234.591047,502.238456,247.087571,516.866554,223.281552C516.402472,221.244828,520.757828,210.416429,520.06148,203.681638C515.914078,166.338302,479.938673,156.853477,464.67728,167.027739C442.843838,181.583367,434.2259,200.882244,430.333509,208.971791Q426.819288,216.275388,413.805969,299.293147L423.115174,434.146055L420.164883,465.89669L397.316153,482.058523Q410.274277,360.405241,251.735963,248.024547C240.037676,170.825108,187.582436,123.272597,166.973365,113.792425C163.84925,121.602714,173.980449,133.989315,170.270816,129.043138C167.502387,125.351899,148.383231,110.960067,145.539931,112.1437C142.643491,113.349454,153.081407,125.843663,152.959196,134.813678C152.926505,137.213099,152.572123,140.927538,150.486108,142.232943C147.445472,144.135739,142.296531,149.369999,141.16873,150.356824Z" filter="url(#eiHJemNdIGn2-filter)" fill="none" stroke="rgb(63,87,135)" stroke-width="1.28"/></svg>